<svg width="61" height="51" viewBox="0 0 61 51" fill="none" xmlns="http://www.w3.org/2000/svg">
<path d="M14.9765 0.155486C19.6396 0.155486 23.0163 1.76346 25.1067 4.97939C27.1971 8.19533 28.2422 11.8937 28.2422 16.0744C28.2422 18.4863 27.9206 21.1395 27.2775 24.0338C26.6343 26.9282 25.4283 29.8225 23.6595 32.7169C21.73 35.772 19.0768 38.7467 15.7001 41.6411C12.3233 44.6962 7.82103 47.5906 2.19314 50.3241L0.745965 48.1534C3.9619 45.0982 6.53466 42.4451 8.46422 40.1939C10.233 37.9428 11.5998 35.8524 12.5645 33.9228C13.5293 31.9933 14.1725 30.2245 14.4941 28.6165C14.6549 27.0086 14.7353 25.3202 14.7353 23.5514C14.7353 22.2651 14.3333 21.3003 13.5293 20.6571C12.7253 20.1747 11.841 19.5315 10.8762 18.7275C9.429 17.7627 8.14262 16.798 7.01704 15.8332C5.73067 15.0292 5.08748 13.2604 5.08748 10.5269C5.08748 7.63254 6.05226 5.14019 7.98182 3.04983C9.91139 1.12027 12.2429 0.155486 14.9765 0.155486ZM46.8143 0.155483C51.4774 0.155483 54.9345 1.76345 57.1857 4.97939C59.276 8.19533 60.3212 11.8937 60.3212 16.0744C60.3212 18.4863 59.9996 21.0591 59.3564 23.7926C58.7133 26.687 57.4269 29.6617 55.4973 32.7169C53.5678 35.772 50.9146 38.7467 47.5379 41.6411C44.1611 44.6962 39.6588 47.5906 34.0309 50.3241L32.5838 48.1534C35.7997 45.0982 38.3724 42.4451 40.302 40.1939C42.0708 37.9428 43.4375 35.8524 44.4023 33.9228C45.3671 31.9933 46.0103 30.2245 46.3319 28.6165C46.4927 27.0086 46.5731 25.3202 46.5731 23.5514C46.5731 22.2651 46.2515 21.3003 45.6083 20.6571C44.8043 20.0139 43.9199 19.4511 42.9552 18.9687C41.6688 18.1647 40.3824 17.2 39.096 16.0744C37.6489 15.1096 36.9253 13.2604 36.9253 10.5269C36.9253 7.63254 37.8901 5.14019 39.8196 3.04983C41.5884 1.12026 43.9199 0.155483 46.8143 0.155483Z" fill="#283445"/>
<path d="M25.1067 4.9794L22.0021 6.99738L22.0021 6.99739L25.1067 4.9794ZM27.2775 24.0338L30.8921 24.8371L30.8921 24.8371L27.2775 24.0338ZM23.6595 32.7169L26.7902 34.6941L26.8048 34.671L26.8191 34.6477L23.6595 32.7169ZM15.7001 41.6411L13.2903 38.8297L13.2526 38.862L13.2158 38.8953L15.7001 41.6411ZM2.19314 50.3241L-0.887787 52.3781L0.904507 55.0665L3.81091 53.6548L2.19314 50.3241ZM0.745964 48.1534L-1.80434 45.4688L-4.06329 47.6148L-2.33496 50.2073L0.745964 48.1534ZM8.46422 40.1939L11.2756 42.6037L11.327 42.5437L11.3758 42.4816L8.46422 40.1939ZM12.5645 33.9228L9.25265 32.2669L9.25264 32.2669L12.5645 33.9228ZM14.4941 28.6165L18.125 29.3427L18.1605 29.1652L18.1785 28.985L14.4941 28.6165ZM13.5293 20.6571L15.8424 17.7657L15.648 17.6101L15.4344 17.482L13.5293 20.6571ZM10.8762 18.7275L13.2467 15.883L13.0947 15.7563L12.9301 15.6466L10.8762 18.7275ZM7.01704 15.8332L9.4268 13.0218L9.21551 12.8407L8.97953 12.6932L7.01704 15.8332ZM7.98182 3.04983L5.36354 0.431546L5.31119 0.483891L5.26098 0.538289L7.98182 3.04983ZM57.1857 4.97939L60.2903 2.9614L60.2556 2.90807L60.2191 2.85597L57.1857 4.97939ZM59.3564 23.7926L55.7521 22.9445L55.7468 22.9669L55.7418 22.9894L59.3564 23.7926ZM55.4973 32.7169L52.3666 30.7396L55.4973 32.7169ZM47.5379 41.6411L45.1281 38.8297L45.0904 38.862L45.0536 38.8953L47.5379 41.6411ZM34.0309 50.3241L30.95 52.3781L32.7423 55.0665L35.6487 53.6548L34.0309 50.3241ZM32.5838 48.1534L30.0334 45.4688L27.7745 47.6148L29.5028 50.2073L32.5838 48.1534ZM40.302 40.1939L43.1134 42.6037L43.1648 42.5437L43.2136 42.4816L40.302 40.1939ZM44.4023 33.9228L41.0904 32.2669L41.0904 32.2669L44.4023 33.9228ZM46.3319 28.6165L49.9628 29.3427L49.9983 29.1652L50.0163 28.985L46.3319 28.6165ZM45.6083 20.6571L48.2266 18.0388L48.0816 17.8938L47.9214 17.7657L45.6083 20.6571ZM42.9552 18.9687L40.9927 22.1087L41.1419 22.2019L41.2992 22.2806L42.9552 18.9687ZM39.096 16.0744L41.5343 13.2877L41.3518 13.128L41.15 12.9934L39.096 16.0744ZM39.8196 3.04983L42.5405 5.56138L42.5492 5.5519L39.8196 3.04983ZM14.9765 3.8583C18.6971 3.8583 20.7485 5.0687 22.0021 6.99738L28.2113 2.96141C25.2842 -1.54179 20.5821 -3.54732 14.9765 -3.54732L14.9765 3.8583ZM22.0021 6.99739C23.667 9.55877 24.5394 12.5429 24.5394 16.0744L31.945 16.0744C31.945 11.2444 30.7271 6.83188 28.2113 2.96141L22.0021 6.99739ZM24.5394 16.0744C24.5394 18.163 24.2602 20.5424 23.6628 23.2306L30.8921 24.8371C31.5811 21.7366 31.945 18.8097 31.945 16.0744L24.5394 16.0744ZM23.6628 23.2306C23.1199 25.6737 22.0861 28.1905 20.5 30.786L26.8191 34.6477C28.7705 31.4545 30.1486 28.1826 30.8921 24.8371L23.6628 23.2306ZM20.5288 30.7396C18.836 33.4199 16.4486 36.1226 13.2903 38.8297L18.1098 44.4525C21.7051 41.3708 24.6239 38.1241 26.7902 34.6941L20.5288 30.7396ZM13.2158 38.8953C10.1753 41.6463 5.99689 44.3601 0.575363 46.9934L3.81091 53.6548C9.64517 50.821 14.4714 47.7462 18.1843 44.3869L13.2158 38.8953ZM5.27406 48.2702L3.82689 46.0994L-2.33496 50.2073L-0.887787 52.3781L5.27406 48.2702ZM3.29627 50.8379C6.56374 47.7338 9.23425 44.9852 11.2756 42.6037L5.65283 37.7842C3.83506 39.9049 1.36007 42.4626 -1.80434 45.4688L3.29627 50.8379ZM11.3758 42.4816C13.2522 40.0935 14.7704 37.7908 15.8764 35.5788L9.25264 32.2669C8.42907 33.914 7.21379 35.792 5.55263 37.9062L11.3758 42.4816ZM15.8764 35.5788C16.945 33.4417 17.7223 31.3565 18.125 29.3427L10.8632 27.8904C10.6228 29.0925 10.1137 30.5448 9.25265 32.2669L15.8764 35.5788ZM18.1785 28.985C18.3527 27.2438 18.4381 25.4319 18.4381 23.5514L11.0325 23.5514C11.0325 25.2085 10.9571 26.7734 10.8097 28.2481L18.1785 28.985ZM18.4381 23.5514C18.4381 21.4478 17.7398 19.2835 15.8424 17.7657L11.2162 23.5485C11.1795 23.5191 11.1358 23.4763 11.0947 23.4215C11.0538 23.3669 11.0288 23.3184 11.0158 23.2872C10.9908 23.2272 11.0325 23.2876 11.0325 23.5514L18.4381 23.5514ZM15.4344 17.482C14.838 17.1241 14.1108 16.6031 13.2467 15.883L8.50569 21.5721C9.5711 22.46 10.6127 23.2253 11.6242 23.8322L15.4344 17.482ZM12.9301 15.6466C11.5863 14.7507 10.422 13.8748 9.4268 13.0218L4.60729 18.6446C5.86329 19.7211 7.27173 20.7748 8.82221 21.8085L12.9301 15.6466ZM8.97953 12.6932C9.19209 12.8261 9.15844 12.9371 9.04975 12.6382C8.92616 12.2983 8.79029 11.6399 8.79029 10.5269L1.38467 10.5269C1.38467 13.5269 2.04224 17.0905 5.05456 18.9732L8.97953 12.6932ZM8.79029 10.5269C8.79029 8.54542 9.41656 6.95465 10.7027 5.56137L5.26098 0.538289C2.68796 3.32573 1.38467 6.71966 1.38467 10.5269L8.79029 10.5269ZM10.6001 5.66811C11.8339 4.43432 13.2231 3.8583 14.9765 3.8583L14.9765 -3.54732C11.2628 -3.54732 7.98887 -2.19378 5.36354 0.431546L10.6001 5.66811ZM46.8143 3.85829C50.5284 3.85829 52.7304 5.07167 54.1522 7.10281L60.2191 2.85597C57.1386 -1.54477 52.4264 -3.54732 46.8143 -3.54732L46.8143 3.85829ZM54.0811 6.99738C55.746 9.55877 56.6184 12.5429 56.6184 16.0744L64.024 16.0744C64.024 11.2444 62.8061 6.83188 60.2903 2.9614L54.0811 6.99738ZM56.6184 16.0744C56.6184 18.1587 56.3403 20.4447 55.7521 22.9445L62.9608 24.6407C63.659 21.6735 64.024 18.814 64.024 16.0744L56.6184 16.0744ZM55.7418 22.9894C55.2089 25.3876 54.1166 27.9687 52.3666 30.7396L58.628 34.6941C60.7371 31.3547 62.2176 27.9863 62.9711 24.5959L55.7418 22.9894ZM52.3666 30.7396C50.6738 33.4199 48.2863 36.1226 45.1281 38.8297L49.9476 44.4525C53.5429 41.3708 56.4617 38.1241 58.628 34.6941L52.3666 30.7396ZM45.0536 38.8953C42.0131 41.6463 37.8347 44.3601 32.4132 46.9934L35.6487 53.6548C41.483 50.821 46.3092 47.7462 50.0221 44.3868L45.0536 38.8953ZM37.1119 48.2702L35.6647 46.0994L29.5028 50.2073L30.95 52.3781L37.1119 48.2702ZM35.1341 50.8379C38.4015 47.7338 41.072 44.9852 43.1134 42.6037L37.4906 37.7842C35.6728 39.9049 33.1979 42.4626 30.0334 45.4688L35.1341 50.8379ZM43.2136 42.4816C45.09 40.0935 46.6082 37.7908 47.7142 35.5788L41.0904 32.2669C40.2669 33.914 39.0516 35.792 37.3904 37.9062L43.2136 42.4816ZM47.7142 35.5788C48.7828 33.4417 49.56 31.3565 49.9628 29.3427L42.701 27.8904C42.4605 29.0925 41.9515 30.5448 41.0904 32.2669L47.7142 35.5788ZM50.0163 28.985C50.1904 27.2438 50.2759 25.4319 50.2759 23.5514L42.8703 23.5514C42.8703 25.2085 42.7949 26.7734 42.6475 28.2481L50.0163 28.985ZM50.2759 23.5514C50.2759 21.6943 49.8091 19.6213 48.2266 18.0388L42.99 23.2754C42.9302 23.2156 42.8856 23.1555 42.8553 23.1049C42.8257 23.0556 42.817 23.0277 42.8191 23.034C42.8258 23.054 42.8703 23.2058 42.8703 23.5514L50.2759 23.5514ZM47.9214 17.7657C46.9044 16.952 45.7981 16.2503 44.6111 15.6568L41.2992 22.2806C42.0418 22.6519 42.7043 23.0758 43.2952 23.5485L47.9214 17.7657ZM44.9176 15.8287C43.8186 15.1418 42.6902 14.2991 41.5343 13.2877L36.6577 18.861C38.0746 20.1008 39.519 21.1877 40.9927 22.1087L44.9176 15.8287ZM41.15 12.9934C41.1442 12.9896 41.0421 12.9364 40.9162 12.6146C40.773 12.2488 40.6281 11.594 40.6281 10.5269L33.2225 10.5269C33.2225 13.7637 34.0753 17.1775 37.0421 19.1553L41.15 12.9934ZM40.6281 10.5269C40.6281 8.54542 41.2544 6.95464 42.5405 5.56136L37.0988 0.538286C34.5258 3.32573 33.2225 6.71966 33.2225 10.5269L40.6281 10.5269ZM42.5492 5.5519C43.5381 4.47305 44.8358 3.85829 46.8143 3.85829L46.8143 -3.54732C43.0041 -3.54732 39.6386 -2.23252 37.0901 0.547747L42.5492 5.5519Z" fill="#283445"/>
</svg>
