<svg width="60" height="51" viewBox="0 0 60 51" fill="none" xmlns="http://www.w3.org/2000/svg">
<path d="M45.7491 50.7102C41.086 50.7102 37.7092 49.1023 35.6189 45.8863C33.5285 42.6704 32.4833 38.9721 32.4833 34.7914C32.4833 32.3794 32.8049 29.7262 33.4481 26.8319C34.0913 23.9376 35.2973 21.0432 37.0661 18.1489C38.9956 15.0937 41.6488 12.119 45.0255 9.22464C48.4022 6.1695 52.9046 3.27516 58.5324 0.541605L59.9796 2.71236C56.7637 5.7675 54.1909 8.42065 52.2614 10.6718C50.4926 12.923 49.1258 15.0133 48.161 16.9429C47.1963 18.8725 46.5531 20.6412 46.2315 22.2492C46.0707 23.8572 45.9903 25.5455 45.9903 27.3143C45.9903 28.6007 46.3923 29.5654 47.1963 30.2086C48.0002 30.691 48.8846 31.3342 49.8494 32.1382C51.2966 33.103 52.583 34.0678 53.7085 35.0325C54.9949 35.8365 55.6381 37.6053 55.6381 40.3388C55.6381 43.2332 54.6733 45.7255 52.7438 47.8159C50.8142 49.7455 48.4826 50.7102 45.7491 50.7102ZM13.9113 50.7102C9.24819 50.7102 5.79106 49.1023 3.5399 45.8863C1.44954 42.6704 0.404359 38.9721 0.404359 34.7914C0.404359 32.3794 0.725953 29.8066 1.36914 27.0731C2.01233 24.1788 3.2987 21.204 5.22827 18.1489C7.15783 15.0937 9.81098 12.119 13.1877 9.22464C16.5644 6.1695 21.0668 3.27516 26.6947 0.541605L28.1418 2.71236C24.9259 5.7675 22.3531 8.42065 20.4236 10.6718C18.6548 12.923 17.288 15.0133 16.3233 16.9429C15.3585 18.8725 14.7153 20.6412 14.3937 22.2492C14.2329 23.8572 14.1525 25.5455 14.1525 27.3143C14.1525 28.6007 14.4741 29.5654 15.1173 30.2086C15.9213 30.8518 16.8056 31.4146 17.7704 31.897C19.0568 32.701 20.3432 33.6658 21.6296 34.7914C23.0767 35.7561 23.8003 37.6053 23.8003 40.3388C23.8003 43.2332 22.8355 45.7255 20.906 47.8159C19.1372 49.7455 16.8056 50.7102 13.9113 50.7102Z" fill="#283445"/>
<path d="M35.6189 45.8863L38.7235 43.8683V43.8683L35.6189 45.8863ZM33.4481 26.8319L29.8335 26.0286V26.0286L33.4481 26.8319ZM37.0661 18.1489L33.9354 16.1716L33.9208 16.1947L33.9065 16.218L37.0661 18.1489ZM45.0255 9.22464L47.4353 12.036L47.473 12.0037L47.5098 11.9704L45.0255 9.22464ZM58.5324 0.541607L61.6134 -1.51234L59.8211 -4.20079L56.9147 -2.7891L58.5324 0.541607ZM59.9796 2.71236L62.5299 5.3969L64.7889 3.25091L63.0605 0.658417L59.9796 2.71236ZM52.2614 10.6718L49.45 8.26205L49.3986 8.32203L49.3498 8.38413L52.2614 10.6718ZM48.161 16.9429L51.4729 18.5988L51.4729 18.5988L48.161 16.9429ZM46.2315 22.2492L42.6006 21.523L42.5651 21.7006L42.547 21.8807L46.2315 22.2492ZM47.1963 30.2086L44.8832 33.1001L45.0776 33.2556L45.2912 33.3838L47.1963 30.2086ZM49.8494 32.1382L47.4789 34.9828L47.6309 35.1094L47.7954 35.2191L49.8494 32.1382ZM53.7085 35.0325L51.2988 37.8439L51.5101 38.025L51.7461 38.1725L53.7085 35.0325ZM52.7438 47.8159L55.362 50.4342L55.4144 50.3818L55.4646 50.3274L52.7438 47.8159ZM3.5399 45.8863L0.435302 47.9043L0.469965 47.9576L0.506438 48.0098L3.5399 45.8863ZM1.36914 27.0731L4.97352 27.9212L4.97879 27.8988L4.98378 27.8764L1.36914 27.0731ZM5.22827 18.1489L8.35895 20.1261L5.22827 18.1489ZM13.1877 9.22464L15.5975 12.036L15.6352 12.0037L15.672 11.9704L13.1877 9.22464ZM26.6947 0.541607L29.7756 -1.51234L27.9833 -4.20079L25.0769 -2.7891L26.6947 0.541607ZM28.1418 2.71236L30.6921 5.3969L32.9511 3.2509L31.2228 0.658413L28.1418 2.71236ZM20.4236 10.6718L17.6122 8.26205L17.5608 8.32203L17.512 8.38413L20.4236 10.6718ZM16.3233 16.9429L19.6351 18.5988L19.6351 18.5988L16.3233 16.9429ZM14.3937 22.2492L10.7628 21.523L10.7273 21.7006L10.7093 21.8807L14.3937 22.2492ZM15.1173 30.2086L12.499 32.8269L12.644 32.9719L12.8041 33.1L15.1173 30.2086ZM17.7704 31.897L19.7329 28.757L19.5837 28.6638L19.4264 28.5851L17.7704 31.897ZM21.6296 34.7914L19.1912 37.578L19.3738 37.7377L19.5756 37.8723L21.6296 34.7914ZM20.906 47.8159L18.1851 45.3043L18.1764 45.3138L20.906 47.8159ZM45.7491 47.0074C42.0285 47.0074 39.9771 45.797 38.7235 43.8683L32.5143 47.9043C35.4414 52.4075 40.1435 54.413 45.7491 54.413V47.0074ZM38.7235 43.8683C37.0586 41.307 36.1862 38.3228 36.1862 34.7914H28.7805C28.7805 39.6213 29.9985 44.0338 32.5143 47.9043L38.7235 43.8683ZM36.1862 34.7914C36.1862 32.7027 36.4654 30.3233 37.0628 27.6351L29.8335 26.0286C29.1445 29.1292 28.7805 32.056 28.7805 34.7914H36.1862ZM37.0628 27.6351C37.6057 25.192 38.6395 22.6752 40.2256 20.0797L33.9065 16.218C31.9551 19.4112 30.5769 22.6831 29.8335 26.0286L37.0628 27.6351ZM40.1967 20.1261C41.8896 17.4458 44.277 14.7431 47.4353 12.036L42.6157 6.41326C39.0205 9.49489 36.1016 12.7417 33.9354 16.1716L40.1967 20.1261ZM47.5098 11.9704C50.5503 9.21947 54.7287 6.50563 60.1502 3.87231L56.9147 -2.7891C51.0804 0.0446815 46.2542 3.11953 42.5412 6.47887L47.5098 11.9704ZM55.4515 2.59555L56.8987 4.76631L63.0605 0.658417L61.6134 -1.51234L55.4515 2.59555ZM57.4293 0.0278282C54.1618 3.13192 51.4913 5.88048 49.45 8.26205L55.0727 13.0816C56.8905 10.9608 59.3655 8.40309 62.5299 5.3969L57.4293 0.0278282ZM49.3498 8.38413C47.4734 10.7722 45.9551 13.075 44.8491 15.2869L51.4729 18.5988C52.2965 16.9517 53.5118 15.0737 55.173 12.9595L49.3498 8.38413ZM44.8491 15.2869C43.7806 17.424 43.0033 19.5092 42.6006 21.523L49.8624 22.9754C50.1028 21.7732 50.6119 20.3209 51.4729 18.5988L44.8491 15.2869ZM42.547 21.8807C42.3729 23.622 42.2875 25.4339 42.2875 27.3143H49.6931C49.6931 25.6572 49.7684 24.0923 49.9159 22.6176L42.547 21.8807ZM42.2875 27.3143C42.2875 29.4179 42.9858 31.5822 44.8832 33.1001L49.5094 27.3172C49.5461 27.3466 49.5898 27.3895 49.6309 27.4442C49.6718 27.4988 49.6968 27.5473 49.7098 27.5785C49.7348 27.6385 49.6931 27.5781 49.6931 27.3143H42.2875ZM45.2912 33.3838C45.8876 33.7416 46.6148 34.2626 47.4789 34.9828L52.2199 29.2936C51.1545 28.4058 50.1129 27.6404 49.1014 27.0335L45.2912 33.3838ZM47.7954 35.2191C49.1393 36.115 50.3036 36.9909 51.2988 37.8439L56.1183 32.2212C54.8623 31.1446 53.4539 30.0909 51.9034 29.0573L47.7954 35.2191ZM51.7461 38.1725C51.5335 38.0397 51.5671 37.9286 51.6758 38.2275C51.7994 38.5674 51.9353 39.2258 51.9353 40.3388H59.3409C59.3409 37.3388 58.6833 33.7753 55.671 31.8926L51.7461 38.1725ZM51.9353 40.3388C51.9353 42.3203 51.309 43.9111 50.0229 45.3044L55.4646 50.3274C58.0376 47.54 59.3409 44.1461 59.3409 40.3388H51.9353ZM50.1255 45.1976C48.8917 46.4314 47.5025 47.0074 45.7491 47.0074V54.413C49.4628 54.413 52.7367 53.0595 55.362 50.4342L50.1255 45.1976ZM13.9113 47.0074C10.1972 47.0074 7.99516 45.7941 6.57336 43.7629L0.506438 48.0098C3.58695 52.4105 8.29921 54.413 13.9113 54.413V47.0074ZM6.6445 43.8683C4.97959 41.307 4.10717 38.3228 4.10717 34.7914H-3.29845C-3.29845 39.6213 -2.08051 44.0338 0.435302 47.9043L6.6445 43.8683ZM4.10717 34.7914C4.10717 32.7071 4.38532 30.421 4.97352 27.9212L-2.23524 26.225C-2.93342 29.1923 -3.29845 32.0517 -3.29845 34.7914H4.10717ZM4.98378 27.8764C5.51672 25.4781 6.60894 22.897 8.35895 20.1261L2.09758 16.1716C-0.0115281 19.511 -1.49207 22.8794 -2.24549 26.2698L4.98378 27.8764ZM8.35895 20.1261C10.0518 17.4458 12.4392 14.7431 15.5975 12.036L10.778 6.41326C7.18272 9.49489 4.26386 12.7417 2.09758 16.1716L8.35895 20.1261ZM15.672 11.9704C18.7125 9.21947 22.8909 6.50563 28.3124 3.87231L25.0769 -2.7891C19.2426 0.0446815 14.4164 3.11953 10.7034 6.47887L15.672 11.9704ZM23.6137 2.59555L25.0609 4.76632L31.2228 0.658413L29.7756 -1.51234L23.6137 2.59555ZM25.5915 0.0278282C22.3241 3.13192 19.6535 5.88048 17.6122 8.26205L23.235 13.0816C25.0527 10.9608 27.5277 8.40309 30.6921 5.3969L25.5915 0.0278282ZM17.512 8.38413C15.6356 10.7722 14.1173 13.075 13.0114 15.2869L19.6351 18.5988C20.4587 16.9517 21.674 15.0737 23.3352 12.9595L17.512 8.38413ZM13.0114 15.2869C11.9428 17.424 11.1655 19.5092 10.7628 21.523L18.0246 22.9754C18.265 21.7732 18.7741 20.3209 19.6351 18.5988L13.0114 15.2869ZM10.7093 21.8807C10.5351 23.622 10.4497 25.4339 10.4497 27.3143H17.8553C17.8553 25.6572 17.9307 24.0923 18.0781 22.6176L10.7093 21.8807ZM10.4497 27.3143C10.4497 29.1714 10.9165 31.2444 12.499 32.8269L17.7355 27.5903C17.7953 27.6501 17.84 27.7103 17.8703 27.7608C17.8999 27.8101 17.9086 27.838 17.9065 27.8317C17.8998 27.8117 17.8553 27.66 17.8553 27.3143H10.4497ZM12.8041 33.1C13.8212 33.9137 14.9275 34.6154 16.1145 35.2089L19.4264 28.5851C18.6838 28.2138 18.0213 27.7899 17.4304 27.3172L12.8041 33.1ZM15.8079 35.037C16.907 35.7239 18.0354 36.5666 19.1912 37.578L24.0679 32.0047C22.651 30.7649 21.2066 29.6781 19.7329 28.757L15.8079 35.037ZM19.5756 37.8723C19.5814 37.8761 19.6835 37.9293 19.8094 38.2511C19.9526 38.617 20.0975 39.2717 20.0975 40.3388H27.5031C27.5031 37.102 26.6502 33.6882 23.6835 31.7104L19.5756 37.8723ZM20.0975 40.3388C20.0975 42.3203 19.4712 43.9111 18.1851 45.3044L23.6268 50.3274C26.1998 47.54 27.5031 44.1461 27.5031 40.3388H20.0975ZM18.1764 45.3138C17.1875 46.3927 15.8898 47.0074 13.9113 47.0074V54.413C17.7215 54.413 21.0869 53.0982 23.6355 50.318L18.1764 45.3138Z" fill="#283445"/>
</svg>
