<svg width="40" height="41" viewBox="0 0 40 41" fill="none" xmlns="http://www.w3.org/2000/svg">
<path fill-rule="evenodd" clip-rule="evenodd" d="M30.6805 33.7856L30.6816 33.7827L30.7105 33.7105L35.6884 8.61361V8.53209C35.6884 7.90679 35.4573 7.3609 34.9545 7.03345C34.5145 6.74684 34.0086 6.72643 33.6538 6.75336C33.2787 6.78183 32.9249 6.87548 32.68 6.95343C32.554 6.99354 32.4485 7.03218 32.3731 7.0614C32.3353 7.07607 32.3046 7.08852 32.2823 7.09779L32.2604 7.10702L4.50629 17.9945L4.49865 17.9973C4.48366 18.0027 4.46384 18.0101 4.43989 18.0194C4.39216 18.038 4.32719 18.0646 4.25087 18.0992C4.10101 18.1671 3.89395 18.2719 3.68396 18.4157C3.32732 18.66 2.64821 19.2382 2.76288 20.1548C2.85786 20.9141 3.38125 21.3963 3.73411 21.646C3.92326 21.7798 4.10421 21.8763 4.23672 21.9394C4.30386 21.9714 4.3609 21.9959 4.40337 22.0132C4.42467 22.0218 4.44247 22.0288 4.45625 22.034L4.47388 22.0406L4.48516 22.0448L9.34092 23.6795C9.32453 23.9841 9.35475 24.2948 9.43554 24.6013L11.8678 33.828C12.1562 34.922 13.1459 35.684 14.2773 35.6832C15.2914 35.6825 16.1908 35.069 16.5729 34.1536L20.3704 30.0933L26.8923 35.0934L26.985 35.1339C27.5776 35.3925 28.1312 35.4744 28.6373 35.4052C29.1428 35.3362 29.5445 35.1242 29.8462 34.8828C30.1431 34.6453 30.3465 34.3772 30.4745 34.1754C30.5395 34.0729 30.588 33.9827 30.6216 33.9149C30.6385 33.8808 30.6518 33.852 30.6618 33.8295L30.6743 33.8006L30.6787 33.7899L30.6805 33.7856ZM11.8431 23.9665C11.7879 23.7568 11.8746 23.5355 12.0577 23.4192L28.5278 12.96C28.5278 12.96 29.4965 12.3719 29.4619 12.96C29.4619 12.96 29.6348 13.0639 29.1157 13.5481C28.6233 14.0081 17.377 24.8659 16.2391 25.9646C16.1734 26.028 16.1342 26.1008 16.111 26.1891L14.2754 33.1932L11.8431 23.9665Z" fill="#283445"/>
</svg>
