<svg width="91" height="91" viewBox="0 0 91 91" fill="none" xmlns="http://www.w3.org/2000/svg">
<circle cx="45.4437" cy="45.4373" r="35.1497" fill="white"/>
<circle cx="45.0146" cy="45.0088" r="44.5801" stroke="white" stroke-width="0.85731"/>
<path d="M23.6703 51.0713V41.8853H25.3343V45.7741H29.5909V41.8853H31.2594V51.0713H29.5909V47.1691H25.3343V51.0713H23.6703ZM34.98 51.2103C34.5435 51.2103 34.1502 51.1326 33.8004 50.9771C33.4535 50.8186 33.1784 50.5854 32.9751 50.2774C32.7747 49.9694 32.6746 49.5896 32.6746 49.1381C32.6746 48.7494 32.7463 48.4279 32.8899 48.1738C33.0334 47.9196 33.2293 47.7163 33.4774 47.5638C33.7256 47.4113 34.0052 47.2961 34.3162 47.2184C34.6302 47.1377 34.9546 47.0793 35.2895 47.0435C35.6932 47.0016 36.0206 46.9642 36.2718 46.9313C36.523 46.8955 36.7054 46.8416 36.819 46.7699C36.9356 46.6951 36.9939 46.58 36.9939 46.4245V46.3976C36.9939 46.0597 36.8938 45.798 36.6934 45.6126C36.4931 45.4273 36.2045 45.3346 35.8277 45.3346C35.4301 45.3346 35.1146 45.4213 34.8813 45.5947C34.6511 45.7681 34.4956 45.973 34.4149 46.2092L32.8988 45.9939C33.0184 45.5753 33.2158 45.2254 33.4909 44.9443C33.766 44.6603 34.1024 44.448 34.5001 44.3074C34.8978 44.1639 35.3374 44.0921 35.8188 44.0921C36.1507 44.0921 36.4811 44.131 36.81 44.2087C37.139 44.2865 37.4395 44.4151 37.7116 44.5945C37.9837 44.7709 38.202 45.0116 38.3664 45.3166C38.5339 45.6216 38.6176 46.0029 38.6176 46.4604V51.0713H37.0567V50.1249H37.0029C36.9042 50.3163 36.7652 50.4957 36.5858 50.6631C36.4093 50.8276 36.1866 50.9607 35.9175 51.0623C35.6513 51.161 35.3388 51.2103 34.98 51.2103ZM35.4016 50.0172C35.7276 50.0172 36.0102 49.9529 36.2494 49.8244C36.4886 49.6928 36.6725 49.5194 36.8011 49.3041C36.9326 49.0888 36.9984 48.854 36.9984 48.5999V47.788C36.9476 47.8299 36.8609 47.8688 36.7383 47.9046C36.6187 47.9405 36.4841 47.9719 36.3346 47.9988C36.1851 48.0258 36.0371 48.0497 35.8905 48.0706C35.744 48.0915 35.6169 48.1095 35.5093 48.1244C35.2671 48.1573 35.0503 48.2111 34.8589 48.2859C34.6675 48.3607 34.5165 48.4653 34.4059 48.5999C34.2953 48.7314 34.2399 48.9019 34.2399 49.1112C34.2399 49.4102 34.3491 49.636 34.5674 49.7885C34.7857 49.941 35.0637 50.0172 35.4016 50.0172ZM40.2503 51.0713V44.1818H43.1433C43.9596 44.1818 44.604 44.3448 45.0765 44.6707C45.5519 44.9967 45.7897 45.4512 45.7897 46.0343C45.7897 46.42 45.6551 46.7355 45.386 46.9807C45.1198 47.2229 44.7565 47.3858 44.296 47.4696C44.6579 47.4995 44.9748 47.5907 45.2469 47.7432C45.522 47.8957 45.7373 48.096 45.8928 48.3442C46.0483 48.5924 46.1261 48.878 46.1261 49.2009C46.1261 49.5807 46.0259 49.9111 45.8255 50.1922C45.6282 50.4703 45.3396 50.687 44.9599 50.8425C44.5831 50.995 44.1256 51.0713 43.5874 51.0713H40.2503ZM41.7708 49.793H43.5874C43.8864 49.793 44.1211 49.7227 44.2916 49.5822C44.462 49.4386 44.5472 49.2443 44.5472 48.9991C44.5472 48.715 44.462 48.4922 44.2916 48.3308C44.1211 48.1663 43.8864 48.0841 43.5874 48.0841H41.7708V49.793ZM41.7708 47.0345H43.1747C43.396 47.0345 43.5859 47.0031 43.7443 46.9403C43.9028 46.8745 44.0239 46.7833 44.1077 46.6667C44.1914 46.5471 44.2332 46.4051 44.2332 46.2406C44.2332 46.0044 44.1361 45.819 43.9417 45.6844C43.7503 45.5499 43.4842 45.4826 43.1433 45.4826H41.7708V47.0345ZM50.5161 51.2058C49.8253 51.2058 49.2288 51.0623 48.7264 50.7753C48.2271 50.4852 47.8428 50.0755 47.5737 49.5463C47.3046 49.014 47.17 48.3876 47.17 47.6669C47.17 46.9582 47.3046 46.3363 47.5737 45.801C47.8458 45.2628 48.2256 44.8442 48.713 44.5451C49.2004 44.2431 49.773 44.0921 50.4308 44.0921C50.8555 44.0921 51.2561 44.1609 51.6329 44.2984C52.0127 44.433 52.3476 44.6423 52.6376 44.9264C52.9307 45.2105 53.1609 45.5723 53.3284 46.0118C53.4958 46.4484 53.5795 46.9687 53.5795 47.5727V48.0706H47.9325V46.9762H52.0231C52.0202 46.6652 51.9529 46.3886 51.8213 46.1464C51.6897 45.9012 51.5058 45.7083 51.2696 45.5678C51.0364 45.4273 50.7643 45.357 50.4533 45.357C50.1214 45.357 49.8298 45.4377 49.5786 45.5992C49.3275 45.7577 49.1316 45.967 48.9911 46.2271C48.8535 46.4843 48.7832 46.7669 48.7802 47.0749V48.0302C48.7802 48.4309 48.8535 48.7748 49 49.0619C49.1466 49.3459 49.3514 49.5642 49.6145 49.7167C49.8777 49.8662 50.1857 49.941 50.5385 49.941C50.7747 49.941 50.9885 49.9081 51.1799 49.8423C51.3713 49.7735 51.5372 49.6734 51.6778 49.5418C51.8183 49.4102 51.9245 49.2473 51.9962 49.0529L53.5123 49.2233C53.4166 49.624 53.2342 49.9739 52.9651 50.2729C52.6989 50.5689 52.358 50.7992 51.9424 50.9636C51.5268 51.1251 51.0513 51.2058 50.5161 51.2058ZM54.9532 53.6548V44.1818H56.55V45.3211H56.6441C56.7279 45.1536 56.846 44.9757 56.9985 44.7873C57.151 44.596 57.3573 44.433 57.6175 44.2984C57.8776 44.1609 58.2095 44.0921 58.6132 44.0921C59.1455 44.0921 59.6254 44.2282 60.053 44.5003C60.4836 44.7694 60.8245 45.1686 61.0756 45.6979C61.3298 46.2241 61.4569 46.87 61.4569 47.6355C61.4569 48.3921 61.3328 49.035 61.0846 49.5642C60.8364 50.0935 60.4985 50.4972 60.0709 50.7753C59.6433 51.0533 59.1589 51.1924 58.6177 51.1924C58.223 51.1924 57.8956 51.1266 57.6354 50.995C57.3753 50.8635 57.1659 50.705 57.0075 50.5196C56.852 50.3312 56.7309 50.1533 56.6441 49.9858H56.5769V53.6548H54.9532ZM56.5455 47.6266C56.5455 48.0721 56.6083 48.4623 56.7339 48.7972C56.8624 49.1321 57.0463 49.3938 57.2855 49.5822C57.5278 49.7676 57.8208 49.8603 58.1647 49.8603C58.5235 49.8603 58.824 49.7646 59.0662 49.5732C59.3084 49.3788 59.4908 49.1142 59.6134 48.7793C59.739 48.4414 59.8018 48.0572 59.8018 47.6266C59.8018 47.199 59.7405 46.8192 59.6179 46.4873C59.4953 46.1554 59.3129 45.8952 59.0707 45.7068C58.8285 45.5185 58.5265 45.4243 58.1647 45.4243C57.8178 45.4243 57.5233 45.5155 57.2811 45.6979C57.0389 45.8803 56.855 46.1359 56.7294 46.4649C56.6068 46.7938 56.5455 47.181 56.5455 47.6266ZM63.916 44.1818L65.3064 46.725L66.7193 44.1818H68.4372L66.3605 47.6266L68.4731 51.0713H66.7642L65.3064 48.5909L63.8622 51.0713H62.1398L64.2389 47.6266L62.1936 44.1818H63.916Z" fill="#B0A198"/>
<path d="M54.0156 36.0068L46.454 28.8233C46.1356 28.5208 45.6402 28.5078 45.3064 28.7932L36.8694 36.0068" stroke="#B0A198" stroke-width="1.71462" stroke-linecap="round"/>
</svg>
