<svg width="41" height="41" viewBox="0 0 41 41" fill="none" xmlns="http://www.w3.org/2000/svg">
<path d="M24.0146 5.70752C21.9785 5.70752 20.0257 6.51637 18.586 7.95614C17.1462 9.39591 16.3373 11.3487 16.3373 13.3848V17.6592H12.229C12.0227 17.6592 11.8555 17.8264 11.8555 18.0327V23.6765C11.8555 23.8828 12.0227 24.05 12.229 24.05H16.3373V35.6282C16.3373 35.8344 16.5046 36.0016 16.7108 36.0016H22.3547C22.5609 36.0016 22.7282 35.8344 22.7282 35.6282V24.05H26.8729C27.0443 24.05 27.1937 23.9333 27.2353 23.7671L28.6462 18.1232C28.7052 17.8875 28.5269 17.6592 28.2839 17.6592H22.7282V13.3848C22.7282 13.0436 22.8637 12.7164 23.1049 12.4751C23.3462 12.2339 23.6734 12.0983 24.0146 12.0983H28.3305C28.5368 12.0983 28.704 11.9311 28.704 11.7248V6.08101C28.704 5.87474 28.5368 5.70752 28.3305 5.70752H24.0146Z" fill="#283445"/>
</svg>
