<svg width="41" height="41" viewBox="0 0 41 41" fill="none" xmlns="http://www.w3.org/2000/svg">
<path d="M20.1412 15.4596C17.1617 15.4596 14.7464 17.8749 14.7464 20.8544C14.7464 23.8339 17.1617 26.2493 20.1412 26.2493C23.1207 26.2493 25.5361 23.8339 25.5361 20.8544C25.5361 17.8749 23.1207 15.4596 20.1412 15.4596Z" fill="white"/>
<path fill-rule="evenodd" clip-rule="evenodd" d="M11.4589 6.05009C17.1826 5.41039 23.0999 5.41039 28.8236 6.05009C31.9748 6.40229 34.5165 8.88521 34.8864 12.0475C35.5708 17.8988 35.5708 23.81 34.8864 29.6613C34.5165 32.8236 31.9748 35.3066 28.8236 35.6588C23.0999 36.2985 17.1826 36.2985 11.4589 35.6588C8.30765 35.3066 5.76595 32.8236 5.39609 29.6613C4.71172 23.81 4.71172 17.8988 5.39609 12.0475C5.76595 8.88521 8.30765 6.40229 11.4589 6.05009ZM28.441 10.8947C27.5242 10.8947 26.781 11.6379 26.781 12.5547C26.781 13.4714 27.5242 14.2146 28.441 14.2146C29.3577 14.2146 30.1009 13.4714 30.1009 12.5547C30.1009 11.6379 29.3577 10.8947 28.441 10.8947ZM12.2564 20.8544C12.2564 16.4998 15.7866 12.9697 20.1412 12.9697C24.4959 12.9697 28.026 16.4998 28.026 20.8544C28.026 25.2091 24.4959 28.7392 20.1412 28.7392C15.7866 28.7392 12.2564 25.2091 12.2564 20.8544Z" fill="white"/>
</svg>
